<svg xmlns="http://www.w3.org/2000/svg" version="1.1" xmlns:xlink="http://www.w3.org/1999/xlink" xmlns:svgjs="http://svgjs.dev/svgjs" width="2000" height="419" viewBox="0 0 2000 419"><g transform="matrix(1,0,0,1,-1.2121212121212466,-0.8354074014976902)"><svg viewBox="0 0 396 83" data-background-color="#ffffff" preserveAspectRatio="xMidYMid meet" height="419" width="2000" xmlns="http://www.w3.org/2000/svg" xmlns:xlink="http://www.w3.org/1999/xlink"><g id="tight-bounds" transform="matrix(1,0,0,1,0.2400000000000091,0.1654864303682757)"><svg viewBox="0 0 395.52 82.66902713926343" height="82.66902713926343" width="395.52"><g><svg viewBox="0 0 523.6184342874994 109.44333170189098" height="82.66902713926343" width="395.52"><g transform="matrix(1,0,0,1,128.09843428749951,15.12567030033371)"><svg viewBox="0 0 395.5199999999999 79.19199110122356" height="79.19199110122356" width="395.5199999999999"><g id="textblocktransform"><svg viewBox="0 0 395.5199999999999 79.19199110122356" height="79.19199110122356" width="395.5199999999999" id="textblock"><g><svg viewBox="0 0 395.5199999999999 79.19199110122356" height="79.19199110122356" width="395.5199999999999"><g transform="matrix(1,0,0,1,0,0)"><svg width="395.5199999999999" viewBox="0.35 -35.25 179.79 36" height="79.19199110122356" data-palette-color="#000000"><path d="M11.75-35.25Q14.75-35.25 17.05-34.2 19.35-33.15 21.3-31.05L21.3-31.05 18.35-27.65Q16.8-29.05 15.33-29.75 13.85-30.45 12.2-30.45L12.2-30.45Q10.3-30.45 9.2-29.28 8.1-28.1 8.1-26.2L8.1-26.2Q8.1-24.3 9.25-23.1 10.4-21.9 13.75-20.6L13.75-20.6Q18.05-18.85 20.08-16.5 22.1-14.15 22.1-9.85L22.1-9.85Q22.1-6.9 20.75-4.48 19.4-2.05 16.88-0.65 14.35 0.75 11 0.75L11 0.75Q7.55 0.75 5-0.48 2.45-1.7 0.35-3.95L0.35-3.95 3.55-7.45Q5.35-5.85 7-5 8.65-4.15 10.6-4.15L10.6-4.15Q12.9-4.15 14.18-5.58 15.45-7 15.45-9.45L15.45-9.45Q15.45-11.6 14.33-12.98 13.2-14.35 10.15-15.5L10.15-15.5Q5.55-17.35 3.53-19.75 1.5-22.15 1.5-25.75L1.5-25.75Q1.5-28.5 2.83-30.65 4.15-32.8 6.5-34.02 8.85-35.25 11.75-35.25L11.75-35.25ZM48.2 0L41.75 0 40.05-8.1 31.15-8.1 29.5 0 23.15 0 31.85-34.55 39.55-34.55 48.2 0ZM35.6-29.7L32.15-12.9 39.1-12.9 35.6-29.7ZM58.99-34.55Q65.25-34.55 68.52-31.78 71.8-29 71.8-23.6L71.8-23.6Q71.8-17.85 68.57-15 65.34-12.15 59.45-12.15L59.45-12.15 57.45-12.15 57.45 0 51.09 0 51.09-34.55 58.99-34.55ZM59.09-16.9Q62.34-16.9 63.8-18.4 65.25-19.9 65.25-23.55L65.25-23.55Q65.25-26.85 63.8-28.35 62.34-29.85 59.14-29.85L59.14-29.85 57.45-29.85 57.45-16.9 59.09-16.9ZM83.44-34.55Q89.69-34.55 92.97-31.78 96.24-29 96.24-23.6L96.24-23.6Q96.24-17.85 93.02-15 89.79-12.15 83.89-12.15L83.89-12.15 81.89-12.15 81.89 0 75.54 0 75.54-34.55 83.44-34.55ZM83.54-16.9Q86.79-16.9 88.24-18.4 89.69-19.9 89.69-23.55L89.69-23.55Q89.69-26.85 88.24-28.35 86.79-29.85 83.59-29.85L83.59-29.85 81.89-29.85 81.89-16.9 83.54-16.9ZM111.44-35.25Q117.54-35.25 120.84-30.8 124.14-26.35 124.14-17.3L124.14-17.3Q124.14-8.35 120.84-3.8 117.54 0.75 111.44 0.75L111.44 0.75Q105.39 0.75 102.07-3.75 98.74-8.25 98.74-17.25L98.74-17.25Q98.74-26.15 102.07-30.7 105.39-35.25 111.44-35.25L111.44-35.25ZM111.44-30.45Q108.39-30.45 106.92-27.4 105.44-24.35 105.44-17.25L105.44-17.25Q105.44-10.1 106.94-7.13 108.44-4.15 111.44-4.15L111.44-4.15Q114.54-4.15 116.02-7.1 117.49-10.05 117.49-17.3L117.49-17.3Q117.49-24.4 115.99-27.43 114.49-30.45 111.44-30.45L111.44-30.45ZM140.34-35.25Q146.44-35.25 149.74-30.8 153.04-26.35 153.04-17.3L153.04-17.3Q153.04-8.35 149.74-3.8 146.44 0.75 140.34 0.75L140.34 0.75Q134.29 0.75 130.96-3.75 127.64-8.25 127.64-17.25L127.64-17.25Q127.64-26.15 130.96-30.7 134.29-35.25 140.34-35.25L140.34-35.25ZM140.34-30.45Q137.29-30.45 135.81-27.4 134.34-24.35 134.34-17.25L134.34-17.25Q134.34-10.1 135.84-7.13 137.34-4.15 140.34-4.15L140.34-4.15Q143.44-4.15 144.91-7.1 146.39-10.05 146.39-17.3L146.39-17.3Q146.39-24.4 144.89-27.43 143.39-30.45 140.34-30.45L140.34-30.45ZM165.49-34.55Q169.84-34.55 173.01-33.23 176.19-31.9 178.16-28.13 180.14-24.35 180.14-17.45L180.14-17.45Q180.14-7.7 176.26-3.85 172.39 0 166.14 0L166.14 0 157.79 0 157.79-34.55 165.49-34.55ZM166.44-29.8L164.14-29.8 164.14-4.75 166.49-4.75Q168.74-4.75 170.26-5.8 171.79-6.85 172.66-9.65 173.54-12.45 173.54-17.45L173.54-17.45Q173.54-22.55 172.61-25.25 171.69-27.95 170.16-28.88 168.64-29.8 166.44-29.8L166.44-29.8Z" opacity="1" transform="matrix(1,0,0,1,0,0)" fill="#000000" class="wordmark-text-0" data-fill-palette-color="primary" id="text-0"></path></svg></g></svg></g></svg></g></svg></g><g><svg viewBox="0 0 109.40310579628706 109.44333170189098" height="109.44333170189098" width="109.40310579628706"><g><svg xmlns="http://www.w3.org/2000/svg" xmlns:xlink="http://www.w3.org/1999/xlink" version="1.1" x="0" y="0" viewBox="0.01820386256780493 0 99.96324499174287 100" enable-background="new 0 0 100 100" xml:space="preserve" height="109.44333170189098" width="109.40310579628706" class="icon-icon-0" data-fill-palette-color="accent" id="icon-0"><g fill="#000000" data-fill-palette-color="accent"><path d="M73.428 5.851C66.234 2.019 58.144 0 50.039 0 31.477 0 14.542 10.186 5.846 26.566-7.075 50.918 2.212 81.241 26.562 94.161 33.768 97.979 41.848 100 49.953 100c18.573 0 35.509-10.174 44.204-26.556C107.077 49.095 97.778 18.77 73.428 5.851zM28.003 91.439C5.156 79.307-3.564 50.855 8.556 28.008 16.722 12.637 32.61 3.079 50.039 3.079c7.599 0 15.185 1.896 21.948 5.492 22.849 12.119 31.569 40.572 19.448 63.42-8.166 15.384-24.055 24.93-41.482 24.93C42.353 96.921 34.766 95.024 28.003 91.439z" fill="#000000" data-fill-palette-color="accent"></path><path d="M86.386 29.178c-0.42-0.738-1.356-0.998-2.095-0.566-0.738 0.419-0.998 1.368-0.58 2.095 0.112 0.209 0.236 0.406 0.347 0.615 9.582 17.465 4.2 39.672-12.44 50.808-8.438 5.653-18.524 7.746-28.488 5.924-0.234-0.038-0.456-0.073-0.69-0.124-0.825-0.159-1.638 0.382-1.811 1.207-0.172 0.838 0.37 1.65 1.207 1.824 2.771 0.553 5.542 0.825 8.302 0.825 8.204 0 16.22-2.428 23.204-7.095C91.508 72.521 97.236 48.135 86.386 29.178z" fill="#000000" data-fill-palette-color="accent"></path><path d="M25.799 80.183c-1.762-1.405-3.4-2.969-4.89-4.682-1.108-1.256-2.144-2.598-3.079-4.003l-1.281 0.863 1.207-0.986C5.969 53.639 10.772 29.561 28.459 17.71c5.481-3.67 11.788-5.874 18.303-6.429 0.197-0.025 0.395-0.037 0.592-0.05 0.85-0.048 1.49-0.787 1.428-1.638-0.062-0.85-0.801-1.489-1.638-1.429-7.267 0.493-14.312 2.907-20.397 6.983C7.656 27.946 2.458 53.935 15.133 72.989c0.049 0.073 0.099 0.159 0.135 0.222 1.022 1.516 2.131 2.969 3.326 4.323 1.749 1.995 3.695 3.843 5.789 5.455 0.271 0.223 0.604 0.32 0.937 0.32 0.468 0 0.911-0.209 1.219-0.591 0.518-0.677 0.395-1.637-0.271-2.167C26.107 80.428 25.947 80.305 25.799 80.183z" fill="#000000" data-fill-palette-color="accent"></path><path d="M64.449 13.917c4.359 1.748 8.326 4.237 11.774 7.403 0.295 0.271 0.678 0.405 1.047 0.405 0.42 0 0.826-0.171 1.134-0.504 0.577-0.616 0.529-1.602-0.099-2.169-3.72-3.423-8.006-6.108-12.711-7.993-0.801-0.32-1.688 0.062-2.009 0.851C63.278 12.71 63.66 13.597 64.449 13.917z" fill="#000000" data-fill-palette-color="accent"></path></g><path d="M42.932 69.048c-0.32-1.959-1.798-3.523-3.633-4.028-0.024-0.381-0.049-0.763-0.062-1.145-0.012-0.518-0.012-1.059 0-1.614 0.025-0.565 0.062-1.134 0.099-1.699 0.111-1.184 0.284-2.316 0.505-3.375 0.221-0.998 0.517-2.032 0.862-2.98l0.924-2.144c0.123-0.246 0.234-0.431 0.308-0.566 0-0.013 0.123-0.21 0.136-0.223 3.251-5.319 2.044-12.131-2.599-16.023-0.468-0.395-0.96-0.751-1.502-1.084-1.959-1.206-4.212-1.848-6.504-1.848-4.36 0-8.326 2.229-10.617 5.938-3.215 5.26-2.069 12.169 2.636 16.062 0.013 0.012 0.111 0.099 0.123 0.099l0.099 0.086c0.111 0.111 0.283 0.258 0.493 0.467l1.552 1.713c0.616 0.775 1.231 1.65 1.773 2.55 0.554 0.924 1.084 1.934 1.564 3.017 0.221 0.529 0.443 1.06 0.641 1.577 0.196 0.53 0.369 1.034 0.517 1.54 0.012 0.037 0.024 0.061 0.037 0.099l-0.504 1.649c-1.097 1.121-1.626 2.71-1.355 4.337 0 0.023 0.012 0.048 0.012 0.073 0.395 2.155 2.18 3.843 4.36 4.102 0.197 0.012 0.395 0.025 0.591 0.025 0.271 0 0.542-0.014 0.813-0.062 0.813-0.135 1.564-0.455 2.205-0.937 0.764 0.247 1.564 0.309 2.39 0.174 0.468-0.075 0.911-0.223 1.342-0.42C42.143 73.444 43.289 71.24 42.932 69.048zM38.805 71.622c-0.16 0.085-0.333 0.136-0.517 0.172-0.48 0.074-0.96-0.024-1.355-0.283-0.665-0.419-1.54-0.271-2.032 0.334-0.295 0.38-0.727 0.628-1.194 0.701-0.185 0.037-0.37 0.037-0.554 0.012-0.85-0.098-1.552-0.764-1.688-1.613-0.147-0.888 0.345-1.786 1.195-2.119l0.123-0.048c0.751-0.234 1.194-0.986 1.046-1.763-0.16-0.825-0.369-1.688-0.64-2.548-0.173-0.568-0.357-1.134-0.579-1.726-0.222-0.566-0.456-1.145-0.702-1.725-0.049-0.123-0.111-0.233-0.172-0.344V60.66c-0.493-1.085-1.01-2.095-1.577-3.019-0.616-1.009-1.305-2.007-2.02-2.895l-1.564-1.761-0.234-0.233c-0.259-0.247-0.469-0.444-0.604-0.556l-0.259-0.221c-3.56-2.957-4.421-8.153-1.995-12.107 1.712-2.796 4.693-4.472 7.981-4.472 1.725 0 3.412 0.48 4.89 1.392 0.813 0.493 1.515 1.098 2.106 1.774 2.661 3.006 3.189 7.501 1.022 11.036-0.012 0.023-0.086 0.135-0.099 0.16l-0.099 0.159c-0.099 0.174-0.246 0.431-0.394 0.727-0.062 0.111-0.111 0.222-0.173 0.346l-0.579 1.317c-0.012 0.013-0.049 0.123-0.062 0.148l-0.271 0.689c-0.382 1.084-0.727 2.254-0.973 3.388-0.258 1.182-0.444 2.449-0.566 3.768-0.049 0.628-0.086 1.244-0.111 1.86-0.012 0.615-0.012 1.22 0 1.799 0.038 0.887 0.099 1.773 0.222 2.636 0.11 0.775 0.776 1.342 1.564 1.33l0.062-1.54 0.074 1.54c0.899 0.05 1.663 0.727 1.811 1.625C40.037 70.402 39.594 71.253 38.805 71.622z" fill="#000000" data-fill-palette-color="accent"></path><path d="M57.133 59.588c0.727 1.552 1.934 2.834 3.448 3.635 0.11 0.061 0.233 0.123 0.344 0.171 1.455 0.679 3.104 0.899 4.682 0.641 0.899 0.333 1.823 0.506 2.783 0.506 0.777 0 1.552-0.124 2.304-0.346 1.639-0.505 3.067-1.527 4.076-2.918 2.181-0.53 4.065-1.984 5.124-3.979 1.097-2.045 1.22-4.484 0.358-6.64 0.368-1.416 0.344-2.895-0.087-4.312-0.604-1.958-1.934-3.571-3.658-4.556-0.542-0.309-1.109-0.555-1.712-0.727-0.543-0.506-1.133-0.936-1.774-1.282-1.527-0.813-3.312-1.096-5.025-0.813-1.612-0.603-3.411-0.664-5.073-0.146-0.702 0.209-1.367 0.518-1.983 0.924-2.647 0.233-5.025 1.798-6.27 4.163-0.702 1.305-1.01 2.746-0.911 4.226-1.244 1.944-1.589 4.358-0.911 6.589C53.513 56.879 55.088 58.652 57.133 59.588zM57.379 45.35c0.813-1.526 2.39-2.5 4.126-2.562 0.32 0 0.616-0.111 0.875-0.295 0.443-0.333 0.923-0.58 1.44-0.728 1.121-0.346 2.315-0.271 3.4 0.21 0.308 0.147 0.652 0.171 0.984 0.098 1.146-0.271 2.34-0.122 3.375 0.432 0.469 0.246 0.899 0.579 1.282 0.997 0.209 0.223 0.491 0.382 0.786 0.444 0.358 0.087 0.715 0.209 1.036 0.369 1.206 0.566 2.142 1.639 2.536 2.932 0.296 0.984 0.284 2.021-0.062 3.004-0.136 0.395-0.11 0.825 0.074 1.196 0.69 1.392 0.666 3.042-0.061 4.409-0.715 1.366-2.021 2.278-3.561 2.512-0.456 0.062-0.862 0.333-1.097 0.728-0.616 1.034-1.588 1.798-2.721 2.155-1.121 0.333-2.329 0.259-3.399-0.223-0.197-0.099-0.42-0.135-0.629-0.135-0.124 0-0.247 0.013-0.357 0.036-0.874 0.21-1.772 0.174-2.623-0.11-0.259-0.085-0.518-0.197-0.764-0.32-1.047-0.553-1.848-1.49-2.267-2.623-0.16-0.432-0.505-0.764-0.936-0.924-1.466-0.517-2.574-1.663-3.03-3.141-0.443-1.479-0.159-3.104 0.788-4.335 0.247-0.333 0.357-0.752 0.296-1.158C56.727 47.283 56.899 46.262 57.379 45.35z" fill="#000000" data-fill-palette-color="accent"></path></svg></g></svg></g></svg></g><defs></defs></svg><rect width="395.52" height="82.66902713926343" fill="none" stroke="none" visibility="hidden"></rect></g></svg></g></svg>